<svg width="25" height="18" viewBox="0 0 25 18" fill="none" xmlns="http://www.w3.org/2000/svg">
<path fill-rule="evenodd" clip-rule="evenodd" d="M22.0001 0.566406H3.33341C1.86066 0.566406 0.666748 1.76031 0.666748 3.23307V15.2331C0.666748 16.7058 1.86066 17.8997 3.33341 17.8997H22.0001C23.4728 17.8997 24.6667 16.7058 24.6667 15.2331V3.23307C24.6667 1.76031 23.4728 0.566406 22.0001 0.566406ZM12.6667 7.43065L20.8593 3.01927C21.3456 2.75743 21.952 2.93937 22.2139 3.42564C22.4757 3.91191 22.2938 4.51837 21.8075 4.78021L13.1408 9.44688C12.8449 9.60625 12.4886 9.60625 12.1926 9.44688L3.52598 4.78021C3.03971 4.51837 2.85777 3.91191 3.11961 3.42564C3.38145 2.93937 3.98791 2.75743 4.47418 3.01927L12.6667 7.43065Z" fill="#6993FF"/>
</svg>
