<svg width="27" height="28" viewBox="0 0 27 28" fill="none" xmlns="http://www.w3.org/2000/svg">
<path d="M13.3333 0.566406C5.81333 0.566406 0 6.07307 0 13.4997C0 17.3797 1.58667 20.7531 4.18667 23.0597C4.4 23.2331 4.53333 23.5264 4.54667 23.8197L4.61333 26.1931C4.66667 26.9531 5.42667 27.4464 6.12 27.1397L8.76 25.9797C8.98667 25.8997 9.24 25.8597 9.46667 25.8997C10.6667 26.2597 12 26.4331 13.3333 26.4331C20.8533 26.4331 26.6667 20.9264 26.6667 13.4997C26.6667 6.07307 20.8533 0.566406 13.3333 0.566406ZM21.3333 10.5131L17.4267 16.7397C16.8 17.7131 15.4667 17.9664 14.5333 17.2331L11.4133 14.9264C11.2749 14.8225 11.1064 14.7664 10.9333 14.7664C10.7602 14.7664 10.5918 14.8225 10.4533 14.9264L6.24 18.1264C5.68 18.5664 4.94667 17.8997 5.33333 17.2864L9.24 11.0597C9.86667 10.0864 11.2 9.83307 12.1333 10.5264L15.2533 12.8731C15.3918 12.9769 15.5602 13.0331 15.7333 13.0331C15.9064 13.0331 16.0749 12.9769 16.2133 12.8731L20.4267 9.67307C20.9867 9.23307 21.72 9.89974 21.3333 10.5131Z" fill="#006AFF"/>
</svg>
