<svg width="46" height="47" viewBox="0 0 46 47" fill="none" xmlns="http://www.w3.org/2000/svg">
<path d="M20 2.16564C21.8564 1.09385 24.1436 1.09385 26 2.16564L39.9186 10.2015C41.775 11.2733 42.9186 13.2541 42.9186 15.3977V31.4695C42.9186 33.6131 41.775 35.5938 39.9186 36.6656L26 44.7015C24.1436 45.7733 21.8564 45.7733 20 44.7015L6.08142 36.6656C4.22501 35.5938 3.08142 33.6131 3.08142 31.4695V15.3977C3.08142 13.2541 4.22501 11.2733 6.08142 10.2015L20 2.16564Z" fill="#f08400"/>
<path d="M23 14.4336C18.0371 14.4336 14 18.4707 14 23.4336C14 28.3965 18.0371 32.4336 23 32.4336C27.9629 32.4336 32 28.3965 32 23.4336C32 18.4707 27.9629 14.4336 23 14.4336ZM23 15.9336C27.1514 15.9336 30.5 19.2822 30.5 23.4336C30.5 27.585 27.1514 30.9336 23 30.9336C18.8486 30.9336 15.5 27.585 15.5 23.4336C15.5 19.2822 18.8486 15.9336 23 15.9336ZM22.25 18.9336V24.9336H23.75V18.9336H22.25ZM22.25 26.4336V27.9336H23.75V26.4336H22.25Z" fill="white"/>
</svg>
