<svg width="32" height="32" viewBox="0 0 32 32" fill="none" xmlns="http://www.w3.org/2000/svg">
<mask id="mask0_4353_168118" style="mask-type:alpha" maskUnits="userSpaceOnUse" x="0" y="0" width="32" height="32">
<path opacity="0.3" fill-rule="evenodd" clip-rule="evenodd" d="M14.3287 15.5842C14.3157 15.7154 14.3026 15.848 14.288 15.9827C14.2764 16.2633 14.4199 16.3725 14.706 16.2521C15.0281 16.1164 15.3454 15.9697 15.6627 15.823C15.7412 15.7867 15.8198 15.7503 15.8984 15.7142C16.2791 15.5389 16.6572 15.5397 17.0379 15.7155C17.0947 15.7416 17.1514 15.7678 17.2081 15.794C17.5409 15.9477 17.8735 16.1014 18.2105 16.2453C18.5207 16.378 18.6776 16.2534 18.6423 15.9148C18.6334 15.8294 18.6246 15.7439 18.6159 15.6583C18.5832 15.3381 18.5505 15.0177 18.5057 14.6993C18.4447 14.2666 18.553 13.8932 18.8473 13.5718C18.9035 13.5105 18.9599 13.4492 19.0162 13.3879C19.2408 13.1435 19.4655 12.899 19.686 12.651C19.9503 12.3532 19.8884 12.1779 19.4961 12.0954C19.4199 12.0795 19.3438 12.0634 19.2676 12.0474C18.9381 11.9779 18.6085 11.9084 18.278 11.8449C17.8715 11.7667 17.5754 11.5437 17.3735 11.1871C17.3291 11.1088 17.2848 11.0305 17.2406 10.9522C17.0807 10.6694 16.9209 10.3866 16.7573 10.106C16.5528 9.7554 16.3771 9.75626 16.1721 10.109C16.0178 10.3743 15.8668 10.6417 15.7159 10.9092C15.6629 11.003 15.6099 11.0968 15.5568 11.1905C15.3587 11.5399 15.0678 11.7616 14.6708 11.8411L14.6708 11.8411C14.2501 11.9253 13.8295 12.0095 13.4106 12.101C13.0458 12.1809 12.9873 12.3567 13.2348 12.6373C13.4995 12.9376 13.768 13.2358 14.0452 13.5254C14.3765 13.8713 14.4946 14.2718 14.425 14.7448C14.3844 15.0209 14.3569 15.299 14.3287 15.5842ZM19.6874 27.0001C19.3698 26.8777 19.2074 26.6336 19.0991 26.3187C18.6407 24.9875 18.1702 23.6602 17.6962 22.3342C17.6451 22.1912 17.6584 22.1087 17.777 22.0081C18.0917 21.7403 18.4034 21.4688 18.715 21.1972C18.9594 20.9842 19.2038 20.7713 19.4498 20.5601C19.5099 20.5081 19.5963 20.4639 19.6736 20.4583C20.2266 20.4173 20.7798 20.3785 21.333 20.3398L21.3331 20.3397L21.3332 20.3397C21.9581 20.2959 22.583 20.2521 23.2077 20.2052C23.3538 20.1944 23.3873 20.2688 23.4251 20.3766C23.8951 21.7234 24.3673 23.0695 24.8396 24.4158L24.9127 24.624C24.9133 24.6256 24.9145 24.627 24.916 24.6283C24.9183 24.6302 24.9213 24.6317 24.9243 24.6333C24.9262 24.6343 24.9282 24.6354 24.9299 24.6365V24.8513C24.6729 25.443 24.4018 25.5611 23.7801 25.3532C23.6205 25.2998 23.4608 25.2466 23.3011 25.1934C22.8379 25.0392 22.3746 24.885 21.9135 24.7245C21.7765 24.6769 21.7034 24.6915 21.6222 24.8229C21.4454 25.1087 21.2638 25.3912 21.0822 25.6738L21.0822 25.6738C20.9085 25.9441 20.7347 26.2144 20.5652 26.4875C20.4213 26.7191 20.252 26.9086 19.989 26.9997H19.6882L19.6874 27.0001ZM8 24.6369L8.53233 23.1354C8.84098 22.265 9.14961 21.3946 9.4579 20.524L9.4598 20.5186C9.57349 20.1974 9.57449 20.1946 9.91207 20.2176C10.316 20.2451 10.7198 20.2732 11.1236 20.3013C11.7826 20.3472 12.4416 20.393 13.1007 20.4359C13.2868 20.448 13.4346 20.5055 13.5772 20.6336C14.1036 21.1066 14.6398 21.5694 15.1786 22.0287C15.2779 22.1134 15.2891 22.1856 15.2478 22.3016C14.7601 23.674 14.2742 25.0468 13.7955 26.4222C13.6967 26.7067 13.5111 26.8884 13.2417 27.0001H12.9409C12.6801 26.9069 12.5086 26.72 12.3655 26.488C12.1572 26.1502 11.9414 25.8167 11.7256 25.4832L11.7256 25.4831L11.7253 25.4827C11.6346 25.3425 11.5439 25.2023 11.4538 25.0618C11.3879 24.9592 11.3216 24.8571 11.2544 24.7538L11.2544 24.7538L11.1994 24.6691C10.9854 24.7404 10.7731 24.8108 10.5619 24.8808L10.5582 24.882L10.5579 24.8821C10.0499 25.0505 9.54886 25.2165 9.04928 25.3871C8.73991 25.4928 8.45116 25.4859 8.21914 25.238C8.15123 25.1654 8.10666 25.071 8.06211 24.9767C8.0421 24.9344 8.0221 24.8921 8 24.8517V24.6369Z" fill="black"/>
<path d="M16.207 5.00043H16.7226C17.1699 5.12847 17.4994 5.43441 17.8354 5.73217C18.1835 6.04111 18.5324 6.34962 18.8929 6.64352C18.99 6.72258 19.1284 6.78145 19.2525 6.79219C19.894 6.84848 20.5377 6.885 21.1801 6.93055C21.9419 6.98469 22.4747 7.52436 22.5267 8.28962C22.5705 8.93242 22.6096 9.57565 22.6655 10.2172C22.6758 10.3349 22.7316 10.4668 22.8081 10.5575C23.2129 11.0404 23.6322 11.5105 24.043 11.9883C24.6025 12.6388 24.5969 13.3495 24.0318 13.9996C23.6327 14.459 23.2378 14.9221 22.8318 15.375C22.714 15.5065 22.6642 15.6444 22.6543 15.8172C22.6173 16.4531 22.5722 17.0886 22.5245 17.7237C22.4743 18.3948 22.021 18.9276 21.3537 19.0131C20.652 19.1025 19.9417 19.1236 19.2362 19.1859C19.1245 19.1957 18.9977 19.2421 18.9131 19.313C18.431 19.7182 17.9592 20.1363 17.484 20.5497C16.8304 21.1181 16.1056 21.1186 15.4542 20.5505C14.9794 20.1363 14.5072 19.7195 14.0268 19.3113C13.9511 19.2473 13.8429 19.1949 13.7458 19.1871C13.0896 19.1334 12.4322 19.0939 11.7753 19.0488C11.022 18.9972 10.472 18.4709 10.411 17.7258C10.3577 17.0766 10.3281 16.4256 10.2709 15.7768C10.2593 15.6462 10.1992 15.5001 10.1154 15.3995C9.71623 14.9217 9.3003 14.4577 8.89211 13.9872C8.34212 13.3538 8.34212 12.6247 8.89211 11.99C9.30932 11.5083 9.73213 11.0314 10.1433 10.545C10.2112 10.4647 10.2615 10.3474 10.2701 10.2434C10.3238 9.58725 10.3612 8.92942 10.4084 8.27287C10.4613 7.54155 10.9924 6.99457 11.7091 6.93484C12.1443 6.89875 12.58 6.8691 13.0157 6.84504C13.5924 6.81353 14.0971 6.60815 14.5299 6.22888C14.7074 6.07291 14.8878 5.92037 15.0644 5.76354C15.4099 5.45589 15.7459 5.13449 16.2074 5L16.207 5.00043ZM14.288 15.9826C14.276 16.2632 14.4199 16.3723 14.7061 16.252C15.1078 16.0827 15.5023 15.8962 15.8985 15.714C16.2796 15.5387 16.6573 15.5396 17.038 15.7153C17.4273 15.8949 17.8161 16.0767 18.2106 16.2451C18.5212 16.3775 18.678 16.2533 18.6424 15.9147C18.5998 15.5091 18.5625 15.1026 18.5057 14.6991C18.4447 14.266 18.553 13.8931 18.8473 13.5717C19.1279 13.2653 19.4102 12.9611 19.6861 12.6509C19.9503 12.3535 19.8885 12.1778 19.4962 12.0953C19.0905 12.0102 18.6849 11.923 18.278 11.8448C17.8715 11.7666 17.5755 11.5432 17.3735 11.1869C17.169 10.826 16.9662 10.4642 16.7574 10.1059C16.5529 9.75526 16.3775 9.75612 16.1722 10.1089C15.9638 10.4672 15.7614 10.8295 15.5569 11.1904C15.3588 11.5397 15.0679 11.7614 14.6709 11.8409C14.2502 11.9251 13.8295 12.0094 13.4106 12.1009C13.0454 12.1808 12.9874 12.3565 13.2349 12.6371C13.5 12.9379 13.7685 13.2357 14.0452 13.5253C14.3765 13.8716 14.4947 14.272 14.4251 14.7447C14.3658 15.1477 14.3344 15.5551 14.288 15.9826Z" fill="black"/>
</mask>
<g mask="url(#mask0_4353_168118)">
<rect width="32" height="32" fill="#B5B5C3"/>
</g>
</svg>
