<svg width="33" height="32" viewBox="0 0 33 32" fill="none" xmlns="http://www.w3.org/2000/svg">
<mask id="mask0_4353_168089" style="mask-type:alpha" maskUnits="userSpaceOnUse" x="0" y="0" width="33" height="32">
<path fill-rule="evenodd" clip-rule="evenodd" d="M8.5 6.6665H24.5C26.7091 6.6665 28.5 8.45737 28.5 10.6665V22.6665C28.5 24.8756 26.7091 26.6665 24.5 26.6665H8.5C6.29086 26.6665 4.5 24.8756 4.5 22.6665V10.6665C4.5 8.45737 6.29086 6.6665 8.5 6.6665ZM19.1667 22.6665L13.1667 14.6665L7.16667 22.6665H19.1667ZM25.8333 14.6665C25.8333 16.8756 24.0425 18.6665 21.8333 18.6665C19.6242 18.6665 17.8333 16.8756 17.8333 14.6665C17.8333 12.4574 19.6242 10.6665 21.8333 10.6665C24.0425 10.6665 25.8333 12.4574 25.8333 14.6665Z" fill="black"/>
</mask>
<g mask="url(#mask0_4353_168089)">
<rect x="0.5" width="32" height="32" fill="#B5B5C3"/>
</g>
</svg>
